<?xml version="1.0" encoding="utf-8"?>
<!-- Generator: Adobe Illustrator 23.0.3, SVG Export Plug-In . SVG Version: 6.00 Build 0)  -->
<svg version="1.1" id="图层_1" xmlns="http://www.w3.org/2000/svg" xmlns:xlink="http://www.w3.org/1999/xlink" x="0px" y="0px"
	 viewBox="0 0 512 512" style="enable-background:new 0 0 512 512;" xml:space="preserve">
<style type="text/css">
	.st0{fill:none;}
	.st1{fill:#293593;stroke:#293593;stroke-width:0.25;}
	.st2{fill:#FFFFFE;stroke:#FFFFFE;stroke-width:0.25;}
	.st3{fill:#FFFFFF;stroke:#FFFFFF;stroke-width:0.25;}
	.st4{fill:#2237A7;stroke:#2237A7;stroke-width:0.25;}
	.st5{fill:#44177F;stroke:#44177F;stroke-width:0.25;}
	.st6{fill:#38228B;stroke:#38228B;stroke-width:0.25;}
	.st7{fill:#4E167D;stroke:#4E167D;stroke-width:0.25;}
	.st8{fill:#50177E;stroke:#50177E;stroke-width:0.25;}
	.st9{fill:#FEFDFE;stroke:#FEFDFE;stroke-width:0.25;}
	.st10{fill:#FEFEFE;stroke:#FEFEFE;stroke-width:0.25;}
</style>
<path class="st0" d="M0,0h150.9c-2.8,5.2-2.4,11.3-3.6,17c-2.7,15.9-1.4,32-2.5,48c-0.1,10.4-0.9,21.5,4.2,31
	c2.6,4.3,0.4,9.3,0.8,14c-0.2,5,2.3,9.4,4.1,13.8c-4.9-0.6-9.1-3.3-13.5-5.3C113.4,105,87,89.7,63.2,70.8
	c-4.4-3.5-8.8-7.2-12.6-11.4c-2-1.9-3.8-4.4-6.6-5.1c-2.4,2.3-1,5.7-0.9,8.5c1.6,17,6.1,34.2,15.5,48.6c1.9,3.2,5.2,5.8,5.6,9.6
	c1.5,13.6,6.7,27.5,17.2,36.7c3.3,3.1,8.4,4.8,9.2,9.8c3.5,13.7,12.4,26.3,25.2,32.8c2.5,1.4,5.6,2.2,7.2,4.8
	c8.1,13.7,19.8,26.9,35.8,31.1c5.4,1.2,8.8,6,13.2,9c10.3,7.7,23.6,10.4,36.2,9.2c-2.1,3.1-4.4,6.2-6.4,9.4
	c-18.5,27.6-32.6,58.6-38.4,91.5c-3.6,18.6-1.3,37.7,2.6,56.1c3,12.8,7.6,25.3,13.4,37.1c8.5,18.9,20.5,36.4,35.6,50.7
	c4.3,3.7,8.2,8,12.8,11.3c1.5,1.5,3.5,0.6,5.2,0.2c0-2.2-0.4-4.3-1.1-6.4c-5.2-15.4-6.3-31.9-5.4-48.1c1.6-31.7,11.5-62.4,25.1-90.9
	c6.6-14.4,14.7-28.2,24.3-40.9c3.1-4.2,5.7-8.9,10.3-11.7c10.4-6.9,19.6-15.4,27.4-25.1c11.5-14,19.2-30.6,24.8-47.6
	c4.1-10.3,8.9-20.6,15.6-29.5c4.7-6,10.5-11.2,17.1-15c11.2-6.7,24.4-8.7,37.1-10.2c10.9-1.4,21.9-1.2,32.9-1
	c2.7,0.1,5.4,0.4,8.1,0.6c7.8,0.6,10.6,0.9,14.8,0.8c2.9,0,5.2-0.2,6.7-0.4c0.1-0.3,0.3-1.1,0.1-2c-0.5-1.6-2-2.1-2.2-2.2
	c-6.5-2.3-11-3.9-11-3.9c-8.8-0.9-9.7-2.1-12.8-2.7c-7.4-1.5-14.9-3-22.3-4.4c-36.7-7-55.3-10.1-66.6-17.5
	c-4.9-3.2-14.3-10.1-27.6-11.3c-5.5-0.5-10.3,0.1-12.9,0.5c-10.2,1.7-17.1,6.1-21.1,8.6c-14,9-21.6,21.5-25.1,28.3
	c-0.8-15.3-5.7-30.2-14.2-42.8c-18.8-30.4-46.3-53.8-68.2-81.8c-10.5-13.3-19.7-27.6-27.3-42.7c-1.9-4-3.6-8.1-6.3-11.7h359v512H0V0
	z"/>
<path class="st1" d="M150.9,0h2.1c2.6,3.6,4.3,7.8,6.3,11.7c7.6,15.1,16.8,29.4,27.3,42.7c21.9,28,49.4,51.4,68.2,81.8
	c8.5,12.7,13.4,27.6,14.2,42.8c3-6.6,10-19.7,24.1-29c3.2-2.1,9.9-6.4,19.6-8.4c2.2-0.5,8.3-1.6,15.8-0.9
	c13.8,1.2,22.8,8.4,30.2,11.6c19.9,8.7,41.7,11.7,62.6,17.1c6.7,1.7,19.4,2.8,36,8.1c4.6,1.5,8.2,2.8,10.6,3.7
	c0.1,0,2.1,0.5,2.7,2.4c0.3,0.9,0.1,1.7-0.1,2c-1.5,0.1-3.8,0.3-6.7,0.4c-4.2,0.1-7-0.2-14.8-0.8c-2.7-0.2-5.4-0.6-8.1-0.6
	c-11-0.2-22-0.4-32.9,1c-12.8,1.5-25.9,3.5-37.1,10.2c-6.7,3.7-12.4,9-17.1,15c-6.7,8.9-11.5,19.2-15.6,29.5
	c-0.8,1.2-1.7,2.3-2.6,3.4c-1.6-0.5-3.1-1.4-4-2.9c0.5-2.9,0.9-5.9,1.7-8.7c7-17.3,17.5-34.2,34.1-43.8c11.2-6.3,24-9.5,36.8-10.1
	c4-0.6,8.3,0,12.1-1.4c-12.9-3-26.2-4.7-38.8-8.7c-8.6-2.6-17-6-25.1-10c-8.8-4.4-18.2-8-28.1-9.2c-9.1-0.8-17.4,4-25,8.4
	c-15.1,10.1-23.3,26.8-33.8,41.1c1.3,4.8,4.8,8.8,5.4,13.8c0.4,2.5-2.1,4.2-4.3,3.8c-4.1-6.9-7.7-14.1-13.1-20.1
	c-13.5-15.3-29.9-28-47.3-38.7c-10.8-6.7-22.6-11.7-34.3-16.7c-8.8-3.8-18-6.4-26.7-10.4c-23.1-10.7-45.4-23.3-66.6-37.4
	c-7.5-4.7-14.6-10-21.5-15.5c-1.5-1.2-3.1-2.1-4.8-2.9c0.5,6.7,2.9,13.1,5.5,19.3c3,6.6,6.5,13.1,11.5,18.5
	c6.9,6.9,15.8,11.2,24.4,15.6c23,10.3,47.3,17.1,71.2,24.8c3.9,1.3,8.1,2.2,11.5,4.5c0.9,1.4,0.4,3,0,4.5c-3.5,2.1-7.4,0.5-11-0.5
	c-25.4-7.7-51-14.9-75.3-25.8c-6.3-2.6-11.6-7.1-17.8-9.9c2,12.7,9.4,24.7,20.7,31.1c10.5,5.9,22.3,8.9,33.8,12.3
	c15.2,3.8,30.6,7.1,46.3,8.6c2.7,0.3,5.5,0.7,7.6,2.4c1.1,3.6-2,6.7-5.6,6.1c-11.3-0.6-22.5-3-33.6-5.1c-14.4-3.3-28.7-7-42.5-12.2
	c1.9,8.9,8.2,16.2,15.1,21.8c5.4,3.9,11.9,6.1,18.4,7.4c14.6,2.8,29.6,2.7,44.4,2.3c5.9-0.1,11.8-1.9,17.8-1.1c2.1,0.5,2.5,3,2,4.9
	c-2.2,2.5-5.8,2.6-8.9,3.3c-13.1,2.1-26.5,1.6-39.7,0.8c-6.1,0-12-1.6-18-2.2c8.1,10.8,19.5,20.5,33.4,22.5
	c13.3,1.8,26.1-3.2,39.1-5.3c3-0.4,6.3-1.6,9,0.5c0.7,2.5-0.5,5.3-3.2,5.9c-11.9,3.1-24,5.9-36.2,7.5c10.9,7.7,24.6,11.3,37.9,10.4
	c1.7,0.7,3.3,1.6,4.9,2.5c-0.1,0.5-0.2,1.4-0.2,1.8c-2.3,0.9-4.6,1.9-6.7,3.2c-12.6,1.2-25.9-1.5-36.2-9.2c-4.3-3.1-7.7-7.8-13.2-9
	c-16-4.2-27.7-17.4-35.8-31.1c-1.5-2.6-4.7-3.4-7.2-4.8c-12.8-6.4-21.6-19.1-25.2-32.8c-0.7-5-5.9-6.7-9.2-9.8
	c-10.5-9.2-15.7-23.1-17.2-36.7c-0.4-3.9-3.7-6.4-5.6-9.6C49.2,97,44.7,79.8,43.1,62.8c-0.2-2.8-1.5-6.3,0.9-8.5
	c2.9,0.7,4.6,3.2,6.6,5.1c3.9,4.1,8.2,7.8,12.6,11.4c23.7,18.9,50.1,34.3,77.2,47.8c4.4,2,8.6,4.7,13.5,5.3
	c-1.8-4.5-4.3-8.9-4.1-13.8c-0.5-4.6,1.8-9.7-0.8-14c-5.1-9.5-4.4-20.6-4.2-31c1.1-16-0.2-32.1,2.5-48C148.5,11.3,148.1,5.2,150.9,0
	z"/>
<path class="st2" d="M154.5,20c2.3,2.8,3,6.4,5,9.4c10.1,16.7,21.8,32.6,35.2,46.9c18.4,21.3,39.5,40.7,53.9,65.1
	c6.9,11.6,12.6,24.8,12.1,38.6c0,4-0.1,8-1.1,11.9c-7-10-16.4-18-25.8-25.6c-16.2-13.1-34.4-23.3-53.5-31.4
	c-8-3.4-16.1-7.8-20.6-15.5c-2.9-4.3-3.8-9.4-3.5-14.5c9,9.7,20.6,16.3,31.7,23.4c4.4,2.4,8.7,5,13.4,6.8c2.1,1,6.1-0.1,5.6-3
	c0.4-1.9-1.6-2.8-2.9-3.6c-9.1-5.2-18.3-10.3-26.8-16.4c-10.4-7-21.4-15.5-24.5-28.3c-0.6-6.2-0.3-12.4-0.2-18.6
	c2.6,3,4.7,6.3,7.1,9.5c13.1,17.2,30.1,30.9,47,44.2c1.7,1.7,3.9,0.3,5.1-1.2c1.2-3.5-2.3-5.6-4.4-7.7c-17.3-14.6-35.6-29-47.2-48.8
	c-2.1-4-4.5-7.8-5.6-12.2C152.9,39.3,154.2,29.6,154.5,20z"/>
<path class="st3" d="M52.3,74c1.7,0.8,3.4,1.7,4.8,2.9c6.9,5.5,14,10.8,21.5,15.5c21.2,14.1,43.5,26.7,66.6,37.4
	c8.7,4,17.9,6.6,26.7,10.4c11.7,5,23.5,10,34.3,16.7c17.4,10.7,33.7,23.4,47.3,38.7c5.4,6,8.9,13.3,13.1,20.1
	c2.3,0.4,4.7-1.4,4.3-3.8c-0.7-5-4.1-9-5.4-13.8c10.5-14.2,18.7-30.9,33.8-41.1c7.6-4.4,15.9-9.2,25-8.4c9.9,1.1,19.3,4.7,28.1,9.2
	c8.1,4,16.5,7.4,25.1,10c12.7,4,25.9,5.7,38.8,8.7c-3.9,1.4-8.1,0.9-12.1,1.4c-12.8,0.7-25.6,3.9-36.8,10.1
	c-16.5,9.5-27.1,26.5-34.1,43.8c-2.6,5.4-4.4,11-6.5,16.6c-5.1,14-13.2,26.7-22.9,37.9c-9.1,10.7-20.2,19.7-32.3,26.9
	c-9,5.2-17.6,11-26.1,17c-15.7,11.8-29.6,26.1-40.5,42.5c-9,13.9-15.4,29.6-16.9,46.2c-1,11.5-1,23.4,2.6,34.5
	c0,0.4-0.1,1.1-0.1,1.4c-1.4-2.2-2.6-4.4-3.9-6.7c-3.5-8.3-7.1-16.7-9.2-25.5c-5.1-20.4-1.5-42.4,8.4-60.8
	c9.1-18.8,23.5-34.3,39.1-48c9.4-8.5,19.6-16.3,30.8-22.2c2.3-1.4,5.3-2.7,5.7-5.7c-0.4-3.7-4.8-4.4-7.7-3.1
	c-5.4,2.2-10.1,5.7-14.9,8.9c-24,16.6-45.7,37.6-59.2,63.7c-3.1,6.2-5.8,12.7-7.3,19.5c-0.4,0.3-1.3,0.9-1.7,1.2
	c-1.2-17.2,4-34,9.1-50.2c6.3-19.3,15.5-37.4,26.3-54.6c5.4-8.3,11.4-16.1,17.3-24c1-1.6,2.5-3.1,2.4-5.1c-0.1-2.9-4.4-3.6-6.1-1.7
	c-2.9,2.6-5.3,6.6-9.8,6.2c-13.3,0.9-27-2.7-37.9-10.4c12.3-1.6,24.3-4.4,36.2-7.5c2.7-0.6,3.9-3.3,3.2-5.9c-2.7-2.1-6-0.9-9-0.5
	c-12.9,2.1-25.8,7.1-39.1,5.3c-13.8-2-25.2-11.7-33.4-22.5c6,0.7,11.9,2.2,18,2.2c13.2,0.8,26.6,1.3,39.7-0.8
	c3.1-0.7,6.7-0.8,8.9-3.3c0.6-1.9,0.2-4.4-2-4.9c-5.9-0.9-11.8,1-17.8,1.1c-14.8,0.4-29.8,0.5-44.4-2.3c-6.5-1.3-13-3.4-18.4-7.4
	c-6.9-5.6-13.2-12.9-15.1-21.8c13.8,5.2,28.1,8.9,42.5,12.2c11.1,2.1,22.3,4.5,33.6,5.1c3.6,0.7,6.7-2.5,5.6-6.1
	c-2.2-1.7-5-2.1-7.6-2.4c-15.6-1.5-31-4.8-46.3-8.6c-11.5-3.4-23.3-6.3-33.8-12.3c-11.3-6.4-18.7-18.4-20.7-31.1
	c6.2,2.8,11.5,7.3,17.8,9.9c24.2,10.9,49.9,18.1,75.3,25.8c3.5,1,7.5,2.6,11,0.5c0.4-1.4,0.9-3.1,0-4.5c-3.4-2.4-7.6-3.2-11.5-4.5
	c-23.9-7.7-48.2-14.5-71.2-24.8c-8.6-4.4-17.5-8.7-24.4-15.6c-5-5.3-8.4-11.9-11.5-18.5C55.1,87.2,52.8,80.7,52.3,74z"/>
<path class="st4" d="M333.4,160.5c2.6-0.4,5.7-0.7,7.9,1.2c4.2,3.2,4.4,10.5,0.1,13.8c-2.2,2.4-5.9,2.5-8.8,1.6
	C326.1,174.1,326.5,162.9,333.4,160.5z"/>
<path class="st5" d="M326.6,248.6c0.2-0.6,1.2-4,3-8.4c1.5-3.7,2.9-6.5,3.7-8.2c-0.4,1.1-0.9,2.5-1.2,4.3c-0.3,1.9-0.3,3.6-0.1,4.8
	c0.1,0.2,0.4,0.9,1.2,1.3c0.9,0.5,1.8,0.3,2,0.3c0.4-0.1,1-0.4,1.7-0.9c0.7-0.6,1.1-1.3,1.3-1.7c-5.6,17.1-13.3,33.7-24.8,47.6
	c-3.2-0.6-6.3-1-9.5-1.3C313.4,275.3,321.5,262.5,326.6,248.6z"/>
<path class="st6" d="M219.7,240.6c1.7-2,6-1.2,6.1,1.7c0.1,2-1.4,3.6-2.4,5.1c-5.9,7.9-12,15.7-17.3,24c-2.8-1.6-4.1-4.5-4.5-7.6
	c2-3.2,4.3-6.3,6.4-9.4c2.1-1.3,4.4-2.3,6.7-3.2c0-0.5,0.1-1.4,0.2-1.8c-1.6-1-3.2-1.9-4.9-2.5C214.4,247.2,216.8,243.3,219.7,240.6
	z"/>
<path class="st7" d="M163.2,355.3c5.8-32.9,19.8-63.9,38.4-91.5c0.4,3.1,1.7,6,4.5,7.6c-10.8,17.1-20,35.3-26.3,54.6
	c-5.1,16.2-10.3,33-9.1,50.2c-0.3,0.8-0.7,1.6-1,2.4c-1.6-1.6-3.1-3.2-4.8-4.8c-1.7,1-1.4,3.1-1.4,4.8c0.3,6.9,1.8,13.6,2.6,20.4
	c0.8,7.8,3.2,15.3,5,23c1.1,4.6,3.8,8.6,7.1,12c-0.9-5.7-3.8-10.9-4.4-16.7c-1.7-14,0.2-28.1,1.6-42c-0.9,0.7-1.7,1.5-2.2,2.5
	c0-0.1,0.1-1.1-0.4-1.4c-0.5-0.4-1.7,0-2.5,1.3c3.3-9.8,6.9-17.3,9.4-22.2c18.1-34.9,29.9-44.2,59.2-63.7c4.8-3.2,9.5-6.7,14.9-8.9
	c2.8-1.3,7.3-0.6,7.7,3.1c-0.4,3-3.4,4.3-5.7,5.7c-11.3,5.9-21.4,13.7-30.8,22.2c-15.5,13.7-29.9,29.2-39.1,48
	c-9.9,18.4-13.5,40.4-8.4,60.8c2.1,8.8,5.6,17.2,9.2,25.5c-1.1,0.2-2.1-0.2-2.5-1.3c-2.2-3.9-3.3-8.4-6-12
	c-2.3,4.6,2.7,8.9,1.1,13.6c-5.8-11.8-10.3-24.3-13.4-37.1C161.9,393.1,159.6,374,163.2,355.3z"/>
<path class="st8" d="M303.7,286.5c3.2,0.3,6.4,0.7,9.5,1.3c-7.7,9.7-17,18.2-27.4,25.1c-4.6,2.8-7.2,7.5-10.3,11.7
	c-9.6,12.7-17.7,26.5-24.3,40.9c-13.6,28.5-23.5,59.2-25.1,90.9c-1.3-0.6-2.3-1.8-2-3.3c0.2-6,2-11.9,1.5-17.9c-0.5,0-1.5,0-2,0
	c-0.9,6.7-1.4,13.5-1.9,20.3l-0.7,0.5c-0.6-6.1-0.1-12.2-0.2-18.3c1.1-13,4.4-25.8,8.5-38.2c6.1-19.6,14.5-38.4,25-56
	c2.6-5,6.1-9.4,8.5-14.5c-10.3,4.9-19.1,12.7-26.7,21.1c-3.3,3.5-5,8.1-6.5,12.7c-9.2,26.4-13.3,54.6-11.4,82.5
	c-0.6,0-1.7,0.1-2.2,0.2c-0.7-8.3,0.2-16.7-0.4-25c-0.8-0.4-1.6-0.8-2.3-1.2c-0.1,1-0.2,2-0.3,3c0.7-0.1,1.3-0.3,2-0.4
	c-1.4,3.7-2,7.6-1.9,11.6c0.7-0.2,1.4-0.4,2.2-0.6c-1.5,5.1-1.6,10.5-3.3,15.6c-2.4-21.2-1-42.7,3.2-63.5c1-5.5,3-10.7,4-16.2
	c-3.9,3.6-6.7,8.3-9.6,12.8c-9.2,15.2-15.2,32.7-14.9,50.6c-0.1,7.3,0.6,14.7,2.2,21.8c-0.3,0.4-1,1.3-1.3,1.8
	c-1-2.3-2.1-4.6-3.3-6.9c-0.5,1.6-1.1,3.2-1.6,4.8c-3.6-11.1-3.6-23-2.6-34.5c1.5-16.6,7.9-32.3,16.9-46.2
	c10.9-16.4,24.8-30.7,40.5-42.5c8.5-6,17.1-11.8,26.1-17C283.5,306.2,294.6,297.2,303.7,286.5z"/>
<path class="st9" d="M236.1,350.1c7.6-8.4,16.4-16.2,26.7-21.1c-2.4,5.1-5.9,9.5-8.5,14.5c-10.4,17.6-18.8,36.5-25,56
	c-4.1,12.4-7.3,25.2-8.5,38.2c-0.8,5.9-0.3,11.9-1.4,17.7c-0.2,0.1-0.7,0.3-0.9,0.3c-0.1-3.5-0.1-7-0.4-10.5
	c-1.9-27.9,2.2-56.1,11.4-82.5C231.1,358.3,232.8,353.6,236.1,350.1z"/>
<path class="st10" d="M209.4,381.4c2.9-4.5,5.7-9.1,9.6-12.8c-1,5.5-3,10.7-4,16.2c-4.1,20.9-5.6,42.4-3.2,63.5
	c1.6,15,4.4,29.9,8.1,44.5c-11.1-10.5-19.5-24-23.1-39c-1.6-7.2-2.3-14.5-2.2-21.8C194.2,414.1,200.2,396.6,209.4,381.4z"/>
<path class="st7" d="M163.4,378.5c0.1-1.7-0.3-3.8,1.4-4.8c1.6,1.5,3.2,3.2,4.8,4.8c0.4-0.8,0.7-1.6,1-2.4c0.4-0.3,1.3-0.9,1.7-1.2
	c0.2,0.7,0.6,2.1,0.8,2.8c0.5-1,1.4-1.8,2.2-2.5c-1.5,13.9-3.3,28-1.6,42c0.6,5.8,3.5,11,4.4,16.7c-3.3-3.3-6.1-7.3-7.1-12
	c-1.8-7.6-4.2-15.2-5-23C165.2,392.1,163.8,385.4,163.4,378.5z"/>
<path class="st8" d="M213.3,419.2c0.8,0.4,1.5,0.8,2.3,1.2c0.6,8.3-0.3,16.7,0.4,25c0.4,0,0.7-0.1,1.1-0.1c0.3,0,0.6-0.1,0.9-0.1
	c0.1,1.6,0.3,3.4,0.5,5.3c0.3,2.1,0.7,4,1.1,5.8c-0.4-0.2-0.6-0.5-0.5-0.7c0.1-0.2,0.4-0.2,0.4-0.2c0.3-2.9,0.6-5.9,0.8-8.8
	c0.3-3,0.6-5.9,0.8-8.8c-0.2,2.8-0.3,5.9-0.4,9.1c0,3.2,0.1,6.3,0.3,9.1l0.7-0.5c0.6-6.8,1-13.5,1.9-20.3c0.5,0,1.5,0,2,0
	c0.5,6.1-1.3,11.9-1.5,17.9c-0.2,1.5,0.7,2.7,2,3.3c-0.9,16.1,0.2,32.7,5.4,48.1c0.7,2,1.2,4.2,1.1,6.4c-1.7,0.5-3.8,1.3-5.2-0.2
	c-4.6-3.3-8.5-7.6-12.8-11.3c-15.1-14.3-27.1-31.8-35.6-50.7c1.6-4.7-3.4-9-1.1-13.6c2.7,3.6,3.8,8.1,6,12c0.4,1.1,1.4,1.5,2.5,1.3
	c1.3,2.2,2.5,4.5,3.9,6.7c0-0.4,0.1-1.1,0.1-1.4c0.5-1.6,1.1-3.2,1.6-4.8c1.2,2.3,2.3,4.5,3.3,6.9c0.2-0.2,0.4-0.5,0.7-0.9
	c0.2-0.3,0.3-0.6,0.4-0.9c1.5,5.6,4.1,13.1,9,21.2c4.8,8,10.2,13.9,14.4,17.8c-1.8-6.8-3.4-14.1-4.8-22.1c-1.4-8-2.4-15.5-3-22.5
	c0.4-1.8,0.8-3.6,1.2-5.5c0.7-3.4,1.3-6.7,1.9-10c-0.7,0.2-1.4,0.4-2.2,0.6c-0.1-4,0.5-7.9,1.9-11.6c-0.7,0.1-1.3,0.3-2,0.4
	C213,421.2,213.1,420.2,213.3,419.2z"/>
</svg>
